<?xml version="1.0" encoding="UTF-8" standalone="no"?>
<!-- Created with Inkscape (http://www.inkscape.org/) -->

<svg
   xmlns:dc="http://purl.org/dc/elements/1.1/"
   xmlns:cc="http://creativecommons.org/ns#"
   xmlns:rdf="http://www.w3.org/1999/02/22-rdf-syntax-ns#"
   xmlns:svg="http://www.w3.org/2000/svg"
   xmlns="http://www.w3.org/2000/svg"
   version="1.1"
   width="666.89301"
   height="147.038"
   viewBox="0 -20 666.89301 147.038"
   id="Ebene_1"
   xml:space="preserve"><metadata
   id="metadata65"><rdf:RDF><cc:Work
       rdf:about=""><dc:format>image/svg+xml</dc:format><dc:type
         rdf:resource="http://purl.org/dc/dcmitype/StillImage" /><dc:title></dc:title></cc:Work></rdf:RDF></metadata><defs
   id="defs63" />
<path
   d="m 0.001,1.383 h 25.85 c 6.337,0 10.801,1.584 13.753,4.536 2.016,2.017 3.24,4.681 3.24,8.137 V 14.2 c 0,5.833 -3.312,9.289 -7.777,11.233 6.121,2.017 10.009,5.473 10.009,12.313 v 0.144 c 0,8.641 -7.057,13.897 -19.082,13.897 H 0 V 1.383 z m 22.394,20.09 c 4.249,0 6.625,-1.44 6.625,-4.393 v -0.144 c 0,-2.736 -2.16,-4.32 -6.336,-4.32 h -9.073 v 8.857 h 8.784 z m 2.017,19.081 c 4.249,0 6.697,-1.656 6.697,-4.608 v -0.144 c 0,-2.736 -2.161,-4.537 -6.841,-4.537 H 13.611 v 9.289 h 10.801 z"
   id="path3"
   style="fill:#435761" />
<path
   d="m 50.525,1.383 h 13.969 v 38.163 h 24.41 V 51.787 H 50.525 V 1.383 z"
   id="path5"
   style="fill:#435761" />
<path
   d="M 92.417,29.776 V 1.34 h 14.185 v 28.146 c 0,7.308 3.672,10.781 9.289,10.781 5.616,0 9.289,-3.328 9.289,-10.419 V 1.34 h 14.185 v 28.074 c 0,16.353 -9.289,23.516 -23.618,23.516 -14.33,0 -23.33,-7.307 -23.33,-23.154 z"
   id="path7"
   style="fill:#435761" />
<path
   d="m 145.942,1.357 h 39.896 v 11.887 h -26.291 v 7.637 h 23.811 V 31.903 H 159.547 V 39.9 h 26.645 v 11.887 h -40.25 V 1.357 z"
   id="path9"
   style="fill:#435761" />
<path
   d="m 191.174,44.484 7.802,-9.414 c 4.984,4.014 10.546,6.13 16.397,6.13 3.756,0 5.779,-1.314 5.779,-3.503 v -0.146 c 0,-2.116 -1.662,-3.283 -8.524,-4.89 -10.763,-2.481 -19.07,-5.547 -19.07,-16.056 v -0.146 c 0,-9.487 7.44,-16.347 19.576,-16.347 8.596,0 15.314,2.335 20.804,6.787 l -7.007,9.998 c -4.623,-3.284 -9.68,-5.036 -14.158,-5.036 -3.395,0 -5.056,1.46 -5.056,3.285 v 0.145 c 0,2.336 1.733,3.357 8.74,4.963 11.63,2.554 18.854,6.349 18.854,15.91 v 0.146 c 0,10.436 -8.163,16.639 -20.443,16.639 -8.957,0.001 -17.481,-2.845 -23.694,-8.465 z"
   id="path11"
   style="fill:#435761" />
<path
   d="m 238.271,26.666 v -0.145 c 0,-14.583 11.666,-26.409 27.218,-26.409 15.554,0 27.075,11.681 27.075,26.264 v 0.145 c 0,14.583 -11.665,26.409 -27.219,26.409 -15.554,0 -27.074,-11.681 -27.074,-26.264 z m 40.036,0 v -0.145 c 0,-7.328 -5.256,-13.712 -12.961,-13.712 -7.633,0 -12.745,6.24 -12.745,13.567 v 0.145 c 0,7.328 5.257,13.712 12.889,13.712 7.705,0.001 12.817,-6.239 12.817,-13.567 z"
   id="path13"
   style="fill:#435761" />
<path
   d="M 297.12,29.806 V 1.341 h 14.186 v 28.176 c 0,7.316 3.672,10.792 9.288,10.792 5.617,0 9.289,-3.332 9.289,-10.43 V 1.341 h 14.186 v 28.104 c 0,16.37 -9.289,23.54 -23.618,23.54 -14.329,0 -23.331,-7.317 -23.331,-23.179 z"
   id="path15"
   style="fill:#435761" />
<path
   d="m 350.584,1.354 h 23.834 c 7.704,0 13.033,2.016 16.417,5.472 2.952,2.88 4.465,6.769 4.465,11.737 v 0.144 c 0,7.705 -4.104,12.817 -10.369,15.481 l 12.024,17.569 H 380.826 L 370.673,36.492 h -0.144 -5.977 V 51.757 H 350.583 V 1.354 z m 23.186,24.194 c 4.752,0 7.488,-2.304 7.488,-5.977 v -0.144 c 0,-3.96 -2.88,-5.977 -7.561,-5.977 h -9.145 v 12.097 h 9.218 z"
   id="path17"
   style="fill:#435761" />
<path
   d="M 398.788,26.587 V 26.441 C 398.788,11.622 410.093,0 425.358,0 c 10.297,0 16.921,4.359 21.386,10.606 l -10.513,8.208 c -2.881,-3.633 -6.192,-5.957 -11.018,-5.957 -7.057,0 -12.024,6.029 -12.024,13.439 v 0.145 c 0,7.627 4.968,13.583 12.024,13.583 5.257,0 8.354,-2.47 11.377,-6.174 l 10.514,7.555 c -4.753,6.61 -11.161,11.477 -22.322,11.477 -14.402,0.001 -25.994,-11.113 -25.994,-26.295 z"
   id="path19"
   style="fill:#435761" />
<path
   d="m 451.995,1.357 h 39.896 v 11.887 h -26.289 v 7.637 h 23.81 v 11.022 h -23.81 V 39.9 h 26.646 V 51.787 H 451.995 V 1.357 z"
   id="path21"
   style="fill:#435761" />
<path
   d="m 550.672,46.415 c 0,3.131 -2.538,5.669 -5.67,5.669 h -39.686 c -3.13,0 -5.669,-2.538 -5.669,-5.669 V 6.73 c 0,-3.132 2.539,-5.669 5.669,-5.669 h 39.686 c 3.132,0 5.67,2.538 5.67,5.669 v 39.685 z"
   id="path23"
   style="fill:#00b0e3" />
<path
   d="m 608.783,46.415 c 0,3.131 -2.538,5.669 -5.669,5.669 h -39.687 c -3.13,0 -5.669,-2.538 -5.669,-5.669 V 6.73 c 0,-3.132 2.539,-5.669 5.669,-5.669 h 39.687 c 3.131,0 5.669,2.538 5.669,5.669 v 39.685 z"
   id="path25"
   style="fill:#f59c07" />
<path
   d="m 666.893,46.415 c 0,3.131 -2.538,5.669 -5.669,5.669 h -39.686 c -3.131,0 -5.67,-2.538 -5.67,-5.669 V 6.73 c 0,-3.132 2.539,-5.669 5.67,-5.669 h 39.686 c 3.131,0 5.669,2.538 5.669,5.669 v 39.685 z"
   id="path27"
   style="fill:#afca0b" />
<path
   d="m 145.942,73.016 h 3.193 v 5.931 c 0.522,-0.869 1.119,-1.705 1.792,-2.509 0.674,-0.803 1.444,-1.52 2.314,-2.151 0.869,-0.628 1.879,-1.128 3.031,-1.498 1.15,-0.369 2.465,-0.553 3.942,-0.553 1.434,0 2.748,0.195 3.943,0.586 1.195,0.39 2.249,0.912 3.162,1.564 0.912,0.651 1.705,1.412 2.379,2.281 0.673,0.87 1.248,1.782 1.727,2.737 0.521,-0.913 1.15,-1.802 1.89,-2.672 0.738,-0.87 1.597,-1.64 2.575,-2.313 0.978,-0.673 2.085,-1.207 3.324,-1.597 1.238,-0.392 2.64,-0.586 4.204,-0.586 1.955,0 3.725,0.336 5.312,1.01 1.585,0.674 2.933,1.608 4.04,2.803 1.109,1.194 1.957,2.65 2.543,4.366 0.586,1.716 0.879,3.617 0.879,5.703 v 20.138 h -3.194 V 86.508 c 0,-3.605 -0.869,-6.397 -2.606,-8.375 -1.738,-1.976 -4.151,-2.965 -7.234,-2.965 -1.391,0 -2.727,0.261 -4.008,0.782 -1.281,0.521 -2.401,1.282 -3.357,2.282 -0.955,1 -1.716,2.227 -2.28,3.682 -0.565,1.457 -0.847,3.118 -0.847,4.986 v 19.356 h -3.193 V 86.313 c 0,-3.475 -0.871,-6.202 -2.607,-8.18 -1.738,-1.976 -4.105,-2.965 -7.104,-2.965 -1.477,0 -2.867,0.304 -4.171,0.912 -1.303,0.61 -2.433,1.458 -3.389,2.542 -0.956,1.086 -1.706,2.346 -2.249,3.78 -0.543,1.434 -0.814,2.998 -0.814,4.693 v 19.161 h -3.193 v -33.24 z"
   id="path29"
   style="fill:#435761" />
<path
   d="m 222.65,107.038 c -2.476,0 -4.748,-0.468 -6.81,-1.403 -2.065,-0.933 -3.857,-2.182 -5.377,-3.747 -1.521,-1.565 -2.706,-3.39 -3.552,-5.474 -0.848,-2.086 -1.271,-4.303 -1.271,-6.648 v -0.131 c 0,-2.346 0.423,-4.562 1.271,-6.647 0.847,-2.085 2.042,-3.932 3.585,-5.54 1.542,-1.606 3.356,-2.877 5.442,-3.812 2.085,-0.934 4.366,-1.401 6.843,-1.401 2.476,0 4.747,0.467 6.811,1.401 2.062,0.935 3.855,2.183 5.376,3.748 1.521,1.563 2.704,3.388 3.552,5.475 0.847,2.085 1.271,4.301 1.271,6.646 v 0.13 c 0,2.347 -0.424,4.562 -1.271,6.648 -0.848,2.085 -2.042,3.933 -3.585,5.54 -1.543,1.608 -3.355,2.879 -5.442,3.812 -2.085,0.934 -4.367,1.403 -6.843,1.403 z m 0.13,-3.065 c 1.964,0 3.787,-0.377 5.468,-1.135 1.68,-0.757 3.122,-1.773 4.322,-3.048 1.201,-1.276 2.141,-2.779 2.816,-4.509 0.676,-1.73 1.016,-3.568 1.016,-5.516 v -0.129 c 0,-1.99 -0.351,-3.86 -1.049,-5.612 -0.698,-1.751 -1.67,-3.275 -2.915,-4.573 -1.245,-1.298 -2.707,-2.314 -4.388,-3.05 -1.681,-0.736 -3.48,-1.103 -5.401,-1.103 -1.966,0 -3.789,0.379 -5.469,1.136 -1.681,0.757 -3.122,1.773 -4.323,3.049 -1.199,1.276 -2.139,2.779 -2.814,4.509 -0.677,1.731 -1.015,3.569 -1.015,5.515 v 0.129 c 0,1.991 0.35,3.86 1.047,5.612 0.7,1.752 1.67,3.278 2.915,4.574 1.244,1.296 2.707,2.314 4.388,3.048 1.68,0.736 3.482,1.103 5.402,1.103 z"
   id="path31"
   style="fill:#435761" />
<path
   d="m 266.511,107.038 c -1.651,0 -3.171,-0.218 -4.561,-0.653 -1.391,-0.433 -2.641,-1.021 -3.748,-1.759 -1.108,-0.738 -2.107,-1.585 -2.998,-2.542 -0.891,-0.955 -1.685,-1.955 -2.379,-2.997 v 7.168 h -3.193 V 59.984 h 3.193 v 20.462 c 0.695,-1.085 1.5,-2.128 2.413,-3.128 0.912,-1 1.921,-1.868 3.029,-2.607 1.109,-0.738 2.348,-1.336 3.715,-1.792 1.37,-0.458 2.878,-0.685 4.53,-0.685 1.998,0 3.964,0.391 5.899,1.172 1.932,0.783 3.659,1.913 5.181,3.39 1.52,1.477 2.747,3.292 3.681,5.442 0.934,2.151 1.402,4.573 1.402,7.266 v 0.13 c 0,2.694 -0.468,5.116 -1.402,7.267 -0.935,2.152 -2.161,3.977 -3.681,5.476 -1.522,1.499 -3.25,2.65 -5.181,3.454 -1.936,0.803 -3.902,1.207 -5.9,1.207 z m -0.292,-3.065 c 1.829,0 3.538,-0.325 5.128,-0.977 1.59,-0.652 2.972,-1.585 4.148,-2.803 1.176,-1.215 2.101,-2.705 2.776,-4.464 0.675,-1.761 1.014,-3.748 1.014,-5.963 v -0.131 c 0,-2.172 -0.35,-4.149 -1.046,-5.93 -0.697,-1.782 -1.644,-3.292 -2.842,-4.53 -1.198,-1.239 -2.591,-2.194 -4.181,-2.868 -1.59,-0.673 -3.256,-1.01 -4.997,-1.01 -1.744,0 -3.431,0.348 -5.064,1.042 -1.634,0.695 -3.082,1.674 -4.344,2.932 -1.265,1.261 -2.277,2.762 -3.04,4.498 -0.761,1.738 -1.142,3.672 -1.142,5.801 v 0.129 c 0,2.13 0.38,4.074 1.142,5.833 0.763,1.761 1.775,3.26 3.04,4.498 1.262,1.238 2.71,2.206 4.344,2.901 1.634,0.696 3.321,1.042 5.064,1.042 z"
   id="path33"
   style="fill:#435761" />
<path
   d="m 292.71,59.981 h 3.976 v 4.366 h -3.976 v -4.366 z m 0.391,13.035 h 3.194 v 33.239 h -3.194 V 73.016 z"
   id="path35"
   style="fill:#435761" />
<path
   d="m 309.328,59.981 h 3.194 v 46.274 h -3.194 V 59.981 z"
   id="path37"
   style="fill:#435761" />
<path
   d="m 339.151,107.038 c -2.178,0 -4.258,-0.414 -6.239,-1.238 -1.981,-0.825 -3.724,-1.998 -5.226,-3.521 -1.503,-1.52 -2.689,-3.345 -3.56,-5.475 -0.873,-2.128 -1.307,-4.497 -1.307,-7.104 v -0.129 c 0,-2.389 0.402,-4.638 1.206,-6.746 0.803,-2.107 1.912,-3.943 3.323,-5.507 1.412,-1.564 3.074,-2.803 4.987,-3.716 1.91,-0.911 3.996,-1.367 6.256,-1.367 2.345,0 4.453,0.445 6.32,1.335 1.868,0.891 3.465,2.119 4.791,3.683 1.325,1.564 2.347,3.4 3.064,5.507 0.717,2.108 1.075,4.399 1.075,6.875 0,0.305 0,0.533 0,0.684 0,0.153 -0.023,0.359 -0.065,0.621 h -27.568 c 0.13,2.074 0.588,3.913 1.373,5.512 0.784,1.599 1.764,2.961 2.94,4.084 1.176,1.125 2.516,1.979 4.019,2.563 1.503,0.583 3.082,0.874 4.738,0.874 2.613,0 4.823,-0.498 6.632,-1.498 1.808,-0.999 3.41,-2.238 4.803,-3.716 l 2.216,1.956 c -1.696,1.825 -3.62,3.335 -5.777,4.53 -2.155,1.193 -4.822,1.793 -8.001,1.793 z m 11.302,-18.966 c -0.132,-1.695 -0.469,-3.313 -1.014,-4.856 -0.544,-1.541 -1.306,-2.91 -2.287,-4.105 -0.98,-1.194 -2.19,-2.152 -3.627,-2.867 -1.438,-0.717 -3.115,-1.076 -5.031,-1.076 -1.656,0 -3.203,0.327 -4.64,0.977 -1.438,0.652 -2.69,1.554 -3.757,2.705 -1.068,1.152 -1.951,2.521 -2.648,4.106 -0.696,1.586 -1.11,3.292 -1.241,5.117 h 24.245 z"
   id="path39"
   style="fill:#435761" />
<path
   d="m 388.158,106.906 c -2.434,0 -4.865,-0.455 -7.299,-1.365 -2.434,-0.909 -4.541,-2.083 -6.322,-3.523 l 1.891,-2.541 c 1.824,1.391 3.736,2.465 5.734,3.226 1.999,0.762 4.062,1.141 6.191,1.141 2.259,0 4.16,-0.562 5.703,-1.691 1.542,-1.127 2.314,-2.667 2.314,-4.618 v -0.13 c 0,-0.953 -0.24,-1.777 -0.717,-2.472 -0.479,-0.694 -1.131,-1.3 -1.955,-1.82 -0.826,-0.521 -1.76,-0.955 -2.804,-1.301 -1.042,-0.347 -2.15,-0.692 -3.323,-1.04 -1.348,-0.391 -2.705,-0.802 -4.074,-1.236 -1.367,-0.434 -2.596,-0.986 -3.682,-1.659 -1.086,-0.672 -1.967,-1.505 -2.64,-2.504 -0.674,-0.997 -1.011,-2.233 -1.011,-3.708 v -0.13 c 0,-1.344 0.271,-2.568 0.814,-3.674 0.543,-1.105 1.293,-2.07 2.25,-2.894 0.955,-0.823 2.107,-1.463 3.453,-1.918 1.348,-0.457 2.824,-0.684 4.432,-0.684 1.998,0 4.052,0.333 6.159,0.999 2.107,0.666 3.985,1.572 5.638,2.715 l -1.694,2.673 c -1.521,-1 -3.161,-1.804 -4.921,-2.412 -1.76,-0.607 -3.53,-0.912 -5.312,-0.912 -2.303,0 -4.139,0.553 -5.507,1.659 -1.369,1.106 -2.054,2.481 -2.054,4.13 v 0.129 c 0,0.91 0.263,1.702 0.782,2.374 0.521,0.671 1.206,1.247 2.055,1.724 0.846,0.476 1.834,0.899 2.963,1.268 1.131,0.369 2.281,0.727 3.455,1.073 1.347,0.391 2.672,0.813 3.977,1.269 1.303,0.456 2.476,1.042 3.518,1.756 1.044,0.715 1.88,1.572 2.51,2.57 0.63,0.996 0.945,2.231 0.945,3.706 v 0.13 c 0,1.474 -0.293,2.807 -0.879,4 -0.587,1.192 -1.402,2.212 -2.444,3.057 -1.044,0.845 -2.259,1.496 -3.649,1.951 -1.392,0.455 -2.89,0.682 -4.497,0.682 z"
   id="path41"
   style="fill:#435761" />
<path
   d="m 424.525,107.038 c -2.477,0 -4.748,-0.468 -6.812,-1.403 -2.062,-0.933 -3.856,-2.182 -5.376,-3.747 -1.521,-1.565 -2.704,-3.39 -3.552,-5.474 -0.848,-2.086 -1.271,-4.303 -1.271,-6.648 v -0.131 c 0,-2.346 0.424,-4.562 1.271,-6.647 0.848,-2.085 2.043,-3.932 3.584,-5.54 1.543,-1.606 3.357,-2.877 5.443,-3.812 2.085,-0.934 4.365,-1.401 6.842,-1.401 2.477,0 4.748,0.467 6.811,1.401 2.062,0.935 3.855,2.183 5.377,3.748 1.521,1.563 2.705,3.388 3.551,5.475 0.848,2.085 1.273,4.301 1.273,6.646 v 0.13 c 0,2.347 -0.426,4.562 -1.273,6.648 -0.846,2.085 -2.039,3.933 -3.584,5.54 -1.542,1.608 -3.354,2.879 -5.441,3.812 -2.086,0.934 -4.367,1.403 -6.843,1.403 z m 0.129,-3.065 c 1.965,0 3.789,-0.377 5.469,-1.135 1.682,-0.757 3.121,-1.773 4.322,-3.048 1.199,-1.276 2.141,-2.779 2.815,-4.509 0.677,-1.73 1.017,-3.568 1.017,-5.516 v -0.129 c 0,-1.99 -0.351,-3.86 -1.049,-5.612 -0.698,-1.751 -1.673,-3.275 -2.914,-4.573 -1.244,-1.297 -2.707,-2.314 -4.389,-3.05 -1.68,-0.736 -3.48,-1.103 -5.4,-1.103 -1.965,0 -3.789,0.379 -5.468,1.136 -1.683,0.757 -3.124,1.773 -4.325,3.049 -1.199,1.276 -2.139,2.779 -2.814,4.509 -0.676,1.731 -1.014,3.569 -1.014,5.515 v 0.129 c 0,1.991 0.349,3.86 1.047,5.612 0.699,1.752 1.67,3.278 2.914,4.574 1.244,1.296 2.707,2.314 4.388,3.048 1.68,0.736 3.481,1.103 5.401,1.103 z"
   id="path43"
   style="fill:#435761" />
<path
   d="m 451.961,59.981 h 3.195 v 46.274 h -3.195 V 59.981 z"
   id="path45"
   style="fill:#435761" />
<path
   d="m 480.377,107.038 c -2.087,0 -3.953,-0.338 -5.604,-1.011 -1.651,-0.673 -3.053,-1.618 -4.202,-2.835 -1.154,-1.216 -2.021,-2.661 -2.608,-4.334 -0.587,-1.671 -0.881,-3.508 -0.881,-5.507 V 73.017 h 3.193 v 19.749 c 0,3.432 0.913,6.181 2.738,8.243 1.824,2.064 4.431,3.097 7.82,3.097 1.607,0 3.115,-0.294 4.529,-0.879 1.412,-0.587 2.64,-1.402 3.682,-2.445 1.045,-1.043 1.857,-2.292 2.444,-3.748 0.587,-1.455 0.881,-3.052 0.881,-4.791 V 73.017 h 3.193 v 33.239 h -3.193 v -6.191 c -1.13,1.954 -2.651,3.605 -4.562,4.953 -1.912,1.345 -4.39,2.02 -7.43,2.02 z"
   id="path47"
   style="fill:#435761" />
<path
   d="m 518.764,106.841 c -1.304,0 -2.519,-0.174 -3.649,-0.521 -1.132,-0.348 -2.117,-0.901 -2.965,-1.663 -0.849,-0.759 -1.512,-1.715 -1.989,-2.867 -0.478,-1.152 -0.715,-2.511 -0.715,-4.074 V 75.949 h -4.823 v -2.933 h 4.823 V 59.981 h 3.192 v 13.035 h 11.665 v 2.933 h -11.665 v 21.392 c 0,2.385 0.62,4.054 1.856,5.007 1.238,0.953 2.836,1.428 4.79,1.428 0.826,0 1.609,-0.08 2.347,-0.245 0.738,-0.165 1.585,-0.452 2.543,-0.861 v 2.997 c -0.871,0.392 -1.729,0.685 -2.576,0.88 -0.848,0.197 -1.791,0.294 -2.834,0.294 z"
   id="path49"
   style="fill:#435761" />
<path
   d="m 533.818,59.981 h 3.976 v 4.366 h -3.976 v -4.366 z m 0.39,13.035 h 3.193 v 33.239 h -3.193 V 73.016 z"
   id="path51"
   style="fill:#435761" />
<path
   d="m 564.709,107.038 c -2.477,0 -4.747,-0.468 -6.81,-1.403 -2.064,-0.933 -3.857,-2.182 -5.376,-3.747 -1.521,-1.565 -2.706,-3.39 -3.555,-5.474 -0.847,-2.086 -1.27,-4.303 -1.27,-6.648 v -0.131 c 0,-2.346 0.423,-4.562 1.27,-6.647 0.849,-2.085 2.043,-3.932 3.586,-5.54 1.542,-1.606 3.357,-2.877 5.441,-3.812 2.084,-0.934 4.368,-1.401 6.843,-1.401 2.476,0 4.748,0.467 6.812,1.401 2.063,0.935 3.854,2.183 5.375,3.748 1.523,1.563 2.705,3.388 3.554,5.475 0.848,2.085 1.271,4.301 1.271,6.646 v 0.13 c 0,2.347 -0.423,4.562 -1.271,6.648 -0.849,2.085 -2.043,3.933 -3.585,5.54 -1.544,1.608 -3.355,2.879 -5.443,3.812 -2.085,0.934 -4.363,1.403 -6.842,1.403 z m 0.13,-3.065 c 1.967,0 3.788,-0.377 5.47,-1.135 1.682,-0.757 3.121,-1.773 4.321,-3.048 1.201,-1.276 2.139,-2.779 2.817,-4.509 0.674,-1.73 1.013,-3.568 1.013,-5.516 v -0.129 c 0,-1.99 -0.349,-3.86 -1.046,-5.612 -0.701,-1.751 -1.672,-3.275 -2.916,-4.573 -1.243,-1.297 -2.706,-2.314 -4.387,-3.05 -1.68,-0.736 -3.482,-1.103 -5.402,-1.103 -1.966,0 -3.788,0.379 -5.469,1.136 -1.681,0.757 -3.121,1.773 -4.323,3.049 -1.2,1.276 -2.139,2.779 -2.815,4.509 -0.676,1.731 -1.014,3.569 -1.014,5.515 v 0.129 c 0,1.991 0.35,3.86 1.049,5.612 0.699,1.752 1.666,3.278 2.912,4.574 1.246,1.296 2.707,2.314 4.39,3.048 1.679,0.736 3.48,1.103 5.4,1.103 z"
   id="path53"
   style="fill:#435761" />
<path
   d="m 591.69,73.016 h 3.196 v 6.192 c 1.128,-1.956 2.65,-3.606 4.562,-4.953 1.912,-1.347 4.387,-2.021 7.429,-2.021 2.087,0 3.953,0.336 5.605,1.01 1.651,0.674 3.052,1.62 4.205,2.834 1.148,1.218 2.019,2.662 2.606,4.335 0.586,1.674 0.878,3.509 0.878,5.507 v 20.334 h -3.192 V 86.506 c 0,-3.433 -0.912,-6.18 -2.738,-8.245 -1.824,-2.063 -4.432,-3.096 -7.82,-3.096 -1.651,0 -3.171,0.293 -4.562,0.88 -1.393,0.586 -2.607,1.4 -3.649,2.443 -1.043,1.043 -1.859,2.292 -2.443,3.748 -0.587,1.456 -0.88,3.052 -0.88,4.79 v 19.227 h -3.196 V 73.016 z"
   id="path55"
   style="fill:#435761" />
<path
   d="m 642.395,106.906 c -2.433,0 -4.865,-0.455 -7.299,-1.365 -2.434,-0.909 -4.541,-2.083 -6.322,-3.523 l 1.891,-2.541 c 1.824,1.391 3.735,2.465 5.736,3.226 1.997,0.762 4.061,1.141 6.19,1.141 2.26,0 4.158,-0.562 5.702,-1.691 1.542,-1.127 2.313,-2.667 2.313,-4.618 v -0.13 c 0,-0.953 -0.24,-1.777 -0.717,-2.472 -0.478,-0.694 -1.13,-1.3 -1.955,-1.82 -0.826,-0.521 -1.761,-0.955 -2.804,-1.301 -1.041,-0.347 -2.149,-0.692 -3.32,-1.04 -1.35,-0.391 -2.706,-0.802 -4.075,-1.236 -1.369,-0.434 -2.598,-0.986 -3.683,-1.659 -1.087,-0.672 -1.968,-1.505 -2.639,-2.504 -0.676,-0.997 -1.012,-2.233 -1.012,-3.708 v -0.13 c 0,-1.344 0.271,-2.568 0.815,-3.674 0.542,-1.105 1.293,-2.07 2.249,-2.894 0.953,-0.823 2.106,-1.463 3.453,-1.918 1.349,-0.457 2.824,-0.684 4.432,-0.684 1.999,0 4.053,0.333 6.16,0.999 2.105,0.666 3.985,1.572 5.636,2.715 l -1.693,2.673 c -1.521,-1 -3.161,-1.804 -4.921,-2.412 -1.761,-0.607 -3.529,-0.912 -5.312,-0.912 -2.305,0 -4.14,0.553 -5.506,1.659 -1.369,1.106 -2.053,2.481 -2.053,4.13 v 0.129 c 0,0.91 0.26,1.702 0.78,2.374 0.523,0.671 1.206,1.247 2.055,1.724 0.847,0.476 1.835,0.899 2.965,1.268 1.129,0.369 2.279,0.727 3.454,1.073 1.346,0.391 2.674,0.813 3.976,1.269 1.302,0.456 2.476,1.042 3.521,1.756 1.041,0.715 1.876,1.572 2.51,2.57 0.628,0.996 0.942,2.231 0.942,3.706 v 0.13 c 0,1.474 -0.294,2.807 -0.878,4 -0.589,1.192 -1.403,2.212 -2.444,3.057 -1.043,0.845 -2.261,1.496 -3.65,1.951 -1.39,0.455 -2.888,0.682 -4.497,0.682 z"
   id="path57"
   style="fill:#435761" />
<path
   d="m 656.46,64.121 v -0.03 c 0,-2.848 2.309,-5.246 5.217,-5.246 2.938,0 5.216,2.368 5.216,5.216 v 0.03 c 0,2.848 -2.309,5.246 -5.216,5.246 -2.938,0 -5.217,-2.368 -5.217,-5.216 z m 9.833,-0.03 v -0.03 c 0,-2.548 -1.979,-4.647 -4.616,-4.647 -2.608,0 -4.617,2.129 -4.617,4.677 v 0.03 c 0,2.548 1.979,4.647 4.617,4.647 2.608,0 4.616,-2.128 4.616,-4.677 z m -6.565,-2.308 c 0,-0.24 0.181,-0.42 0.42,-0.42 h 1.919 c 1.078,0 1.948,0.569 1.948,1.619 0,0.81 -0.51,1.379 -1.259,1.619 l 1.139,1.349 c 0.12,0.15 0.15,0.24 0.15,0.36 0,0.209 -0.15,0.39 -0.39,0.39 -0.181,0 -0.3,-0.09 -0.42,-0.24 l -1.469,-1.769 h -1.199 v 1.589 c 0,0.24 -0.181,0.42 -0.42,0.42 -0.239,0 -0.42,-0.18 -0.42,-0.42 v -4.497 z m 2.248,2.218 c 0.75,0 1.169,-0.39 1.169,-0.959 0,-0.629 -0.449,-0.929 -1.169,-0.929 h -1.408 v 1.889 h 1.408 z"
   id="path59"
   style="fill:#435761" />
</svg>